<svg width="60" height="61" viewBox="0 0 60 61" fill="none" xmlns="http://www.w3.org/2000/svg">
<path d="M10.8528 42.7602C-3.99092 30.6488 1.61837 18.9337 0.318751 2.80778C0.258475 2.05986 0.897688 1.43719 1.63419 1.58077C10.4848 3.30609 25.4288 10.2304 28.6351 27.194C30.0831 34.8545 29.3479 45.3553 29.334 58.3707C29.3336 58.7465 28.8517 58.9032 28.6266 58.6023C25.9275 54.9943 24.9849 54.291 10.8528 42.7602Z" fill="url(#paint0_linear_3002_533)"/>
<path d="M9.94898 41.4841C-2.77582 31.0471 1.4708 16.4176 0.958691 3.35963C0.929979 2.62753 1.56208 2.03637 2.27994 2.18301C10.5767 3.87786 25.1748 11.0356 28.1416 26.7318C29.4774 33.7986 29.3815 46.0023 29.4013 58.1586C29.402 58.5431 28.8962 58.7006 28.6691 58.3903C25.7728 54.4324 22.0926 51.4444 9.94898 41.4841Z" fill="url(#paint1_linear_3002_533)"/>
<g opacity="0.6">
<path d="M29.4066 58.407L29.3711 44.5091C29.3664 42.6488 28.9652 40.7883 28.0555 39.1649C17.4402 20.2205 0.962876 24.3083 0.962876 24.3083C0.962876 24.3083 1.20094 34.7252 9.76095 41.4433C14.6554 45.2846 16.108 46.9138 21.0014 50.7564C24.9011 53.8187 27.4347 56.9906 28.6224 58.6489C28.8526 58.9703 29.4076 58.8022 29.4066 58.407Z" fill="url(#paint2_linear_3002_533)"/>
<path d="M29.4066 58.407L29.3711 44.5091C29.3664 42.6488 28.9652 40.7883 28.0555 39.1649C17.4402 20.2205 0.962876 24.3083 0.962876 24.3083C0.962876 24.3083 1.20094 34.7252 9.76095 41.4433C14.6554 45.2846 16.108 46.9138 21.0014 50.7564C24.9011 53.8187 27.4347 56.9906 28.6224 58.6489C28.8526 58.9703 29.4076 58.8022 29.4066 58.407Z" fill="url(#paint3_radial_3002_533)"/>
</g>
<path d="M28.894 41.1296C24.2733 31.1597 14.1999 22.5161 2.7117 24.1156C2.51948 24.1398 2.31673 24.0881 2.12851 24.1174C2.31678 24.0884 2.51987 24.1409 2.71214 24.1171C13.9929 22.8234 24.1245 31.431 28.2597 41.4283C28.5084 41.977 29.1595 43.3545 29.1595 43.3545L28.9796 42.195C28.9796 42.195 29.1687 41.6756 28.894 41.1296Z" fill="url(#paint4_linear_3002_533)"/>
<path d="M29.0842 40.9972C24.4635 31.0273 14.3924 22.515 2.90429 24.1145C2.71207 24.1387 2.50932 24.087 2.3211 24.1163C2.50937 24.0873 2.71246 24.1398 2.90473 24.116C14.4298 22.5429 24.3146 31.2986 28.4499 41.2959C28.6986 41.8446 29.3497 43.2221 29.3497 43.2221L29.1698 42.0626C29.1698 42.0626 29.3589 41.5432 29.0842 40.9972Z" fill="#3F3F3F"/>
<path d="M0.394531 2.80847C0.33467 2.06052 0.974436 1.43736 1.71094 1.58093C10.5616 3.30632 25.5055 10.2309 28.7119 27.1942C30.1571 34.8402 29.6391 45.7532 29.6357 58.7616C29.6354 59.1443 29.14 59.2947 28.9229 58.9794C28.7961 58.7953 28.6714 58.6192 28.5508 58.4471C27.9575 57.6332 27.0836 56.5123 25.9219 55.245C23.7467 53.0363 20.0367 50.0286 11.0039 42.8329C-4.0619 30.8312 1.68594 18.9447 0.394531 2.80847Z" fill="url(#paint5_radial_3002_533)"/>
<path d="M48.8317 42.5152C63.3369 31.3426 58.9356 19.6647 59.4972 2.45854C59.5159 1.88387 59.1188 1.37289 58.5439 1.38019C52.0894 1.4621 33.5753 10.1643 31.5205 27.3208C30.5489 35.4323 30.2064 45.4778 30.52 58.5085C30.5285 58.8625 30.9656 59.0196 31.1937 58.7488C34.4428 54.8924 34.9188 53.2314 48.8317 42.5152Z" fill="url(#paint6_radial_3002_533)"/>
<path d="M48.8317 42.5152C63.3369 31.3426 58.9356 19.6647 59.4972 2.45854C59.5159 1.88387 59.1188 1.37289 58.5439 1.38019C52.0894 1.4621 33.5753 10.1643 31.5205 27.3208C30.5489 35.4323 30.2064 45.4778 30.52 58.5085C30.5285 58.8625 30.9656 59.0196 31.1937 58.7488C34.4428 54.8924 34.9188 53.2314 48.8317 42.5152Z" fill="url(#paint7_radial_3002_533)"/>
<path d="M50.0901 41.0471C62.8149 30.6102 58.5683 15.9807 59.0804 2.9227C59.1091 2.19061 58.477 1.59945 57.7591 1.74609C49.4624 3.44094 34.8642 10.5987 31.8974 26.2948C30.5617 33.3617 30.6576 45.5654 30.6377 57.7217C30.6371 58.1062 31.1429 58.2636 31.37 57.9533C34.2663 53.9955 37.9464 51.0075 50.0901 41.0471Z" fill="url(#paint8_linear_3002_533)"/>
<path d="M30.6341 58.1026L30.6699 44.0724C30.6746 42.212 31.0758 40.3515 31.9855 38.7281C42.6008 19.7838 59.0781 23.8715 59.0781 23.8715C59.0781 23.8715 58.7536 34.5267 50.1936 41.2448C45.2992 45.0861 44.2274 45.9126 39.299 50.0466C35.3766 53.3366 32.628 56.701 31.3826 58.3474C31.1505 58.6542 30.6331 58.4872 30.6341 58.1026Z" fill="url(#paint9_linear_3002_533)"/>
<path d="M30.6341 58.1026L30.6699 44.0724C30.6746 42.212 31.0758 40.3515 31.9855 38.7281C42.6008 19.7838 59.0781 23.8715 59.0781 23.8715C59.0781 23.8715 58.7536 34.5267 50.1936 41.2448C45.2992 45.0861 44.2274 45.9126 39.299 50.0466C35.3766 53.3366 32.628 56.701 31.3826 58.3474C31.1505 58.6542 30.6331 58.4872 30.6341 58.1026Z" fill="url(#paint10_radial_3002_533)"/>
<path d="M31.147 40.6927C35.7677 30.7227 45.8412 22.0792 57.3293 23.6786C57.5215 23.7029 57.7243 23.6512 57.9125 23.6804C57.7242 23.6514 57.5211 23.704 57.3289 23.6801C46.0482 22.3864 35.9166 30.994 31.7813 40.9913C31.5326 41.54 30.8815 42.9176 30.8815 42.9176L31.0614 41.758C31.0614 41.758 30.8723 41.2386 31.147 40.6927Z" fill="url(#paint11_linear_3002_533)"/>
<path d="M31.1304 40.4438C35.751 30.4738 45.6468 22.0775 57.135 23.677C57.3272 23.7012 57.5299 23.6495 57.7182 23.6788C57.5299 23.6498 57.3268 23.7023 57.1345 23.6784C45.6095 22.1054 35.7246 30.861 31.5894 40.8584C31.3407 41.4071 30.6895 42.7846 30.6895 42.7846L30.6893 41.745C30.6893 41.745 30.8556 40.9897 31.1304 40.4438Z" fill="url(#paint12_linear_3002_533)"/>
<g style="mix-blend-mode:multiply">
<mask id="mask0_3002_533" style="mask-type:alpha" maskUnits="userSpaceOnUse" x="0" y="1" width="60" height="59">
<path d="M10.8528 42.7601C-3.99092 30.6487 1.61837 18.9336 0.318751 2.80765C0.258475 2.05974 0.897688 1.43707 1.63419 1.58064C10.4848 3.30597 25.4288 10.2303 28.6351 27.1939C30.0831 34.8543 29.3479 45.3552 29.334 58.3706C29.3336 58.7464 28.8517 58.9031 28.6266 58.6022C25.9275 54.9942 24.9849 54.2909 10.8528 42.7601Z" fill="url(#paint13_linear_3002_533)"/>
<path d="M9.94898 41.4839C-2.77582 31.047 1.4708 16.4175 0.958691 3.3595C0.929979 2.62741 1.56208 2.03624 2.27994 2.18289C10.5767 3.87774 25.1748 11.0355 28.1416 26.7316C29.4774 33.7985 29.3815 46.0021 29.4013 58.1585C29.402 58.543 28.8962 58.7004 28.6691 58.3901C25.7728 54.4323 22.0926 51.4443 9.94898 41.4839Z" fill="url(#paint14_linear_3002_533)"/>
<g opacity="0.6">
<path d="M29.4066 58.407L29.3711 44.5092C29.3664 42.6488 28.9652 40.7883 28.0555 39.1649C17.4402 20.2206 0.962876 24.3083 0.962876 24.3083C0.962876 24.3083 1.20094 34.7252 9.76095 41.4433C14.6554 45.2846 16.108 46.9138 21.0014 50.7564C24.9011 53.8187 27.4347 56.9906 28.6224 58.6489C28.8526 58.9704 29.4076 58.8023 29.4066 58.407Z" fill="url(#paint15_linear_3002_533)"/>
<path d="M29.4066 58.407L29.3711 44.5092C29.3664 42.6488 28.9652 40.7883 28.0555 39.1649C17.4402 20.2206 0.962876 24.3083 0.962876 24.3083C0.962876 24.3083 1.20094 34.7252 9.76095 41.4433C14.6554 45.2846 16.108 46.9138 21.0014 50.7564C24.9011 53.8187 27.4347 56.9906 28.6224 58.6489C28.8526 58.9704 29.4076 58.8023 29.4066 58.407Z" fill="url(#paint16_radial_3002_533)"/>
</g>
<path d="M28.894 41.1295C24.2733 31.1595 14.1999 22.516 2.7117 24.1155C2.51948 24.1397 2.31673 24.088 2.12851 24.1173C2.31678 24.0883 2.51987 24.1408 2.71214 24.1169C13.9929 22.8233 24.1245 31.4308 28.2597 41.4282C28.5084 41.9769 29.1595 43.3544 29.1595 43.3544L28.9796 42.1949C28.9796 42.1949 29.1687 41.6754 28.894 41.1295Z" fill="url(#paint17_linear_3002_533)"/>
<path d="M29.0842 40.9973C24.4635 31.0273 14.3924 22.5151 2.90429 24.1145C2.71207 24.1387 2.50932 24.0871 2.3211 24.1163C2.50937 24.0873 2.71246 24.1399 2.90473 24.116C14.4298 22.5429 24.3146 31.2986 28.4499 41.2959C28.6986 41.8446 29.3497 43.2221 29.3497 43.2221L29.1698 42.0626C29.1698 42.0626 29.3589 41.5432 29.0842 40.9973Z" fill="#3F3F3F"/>
<path d="M0.394531 2.80847C0.33467 2.06052 0.974436 1.43736 1.71094 1.58093C10.5616 3.30632 25.5055 10.231 28.7119 27.1942C30.1571 34.8402 29.6391 45.7532 29.6357 58.7616C29.6354 59.1443 29.14 59.2947 28.9229 58.9794C28.7961 58.7953 28.6714 58.6192 28.5508 58.4471C27.9575 57.6332 27.0836 56.5123 25.9219 55.245C23.7467 53.0363 20.0367 50.0286 11.0039 42.8329C-4.0619 30.8312 1.68594 18.9447 0.394531 2.80847Z" fill="url(#paint18_radial_3002_533)"/>
<path d="M48.8317 42.515C63.3369 31.3425 58.9356 19.6645 59.4972 2.45839C59.5159 1.88372 59.1188 1.37274 58.5439 1.38004C52.0894 1.46194 33.5753 10.1641 31.5205 27.3206C30.5489 35.4321 30.2064 45.4776 30.52 58.5084C30.5285 58.8623 30.9656 59.0195 31.1937 58.7487C34.4428 54.8923 34.9188 53.2313 48.8317 42.515Z" fill="url(#paint19_radial_3002_533)"/>
<path d="M48.8317 42.515C63.3369 31.3425 58.9356 19.6645 59.4972 2.45839C59.5159 1.88372 59.1188 1.37274 58.5439 1.38004C52.0894 1.46194 33.5753 10.1641 31.5205 27.3206C30.5489 35.4321 30.2064 45.4776 30.52 58.5084C30.5285 58.8623 30.9656 59.0195 31.1937 58.7487C34.4428 54.8923 34.9188 53.2313 48.8317 42.515Z" fill="url(#paint20_radial_3002_533)"/>
<path d="M50.0901 41.047C62.8149 30.61 58.5683 15.9806 59.0804 2.92258C59.1091 2.19049 58.477 1.59932 57.7591 1.74597C49.4624 3.44082 34.8642 10.5985 31.8974 26.2947C30.5617 33.3616 30.6576 45.5652 30.6377 57.7216C30.6371 58.1061 31.1429 58.2635 31.37 57.9532C34.2663 53.9954 37.9464 51.0074 50.0901 41.047Z" fill="url(#paint21_linear_3002_533)"/>
<path d="M30.6341 58.1025L30.6699 44.0723C30.6746 42.2119 31.0758 40.3514 31.9855 38.728C42.6008 19.7836 59.0781 23.8714 59.0781 23.8714C59.0781 23.8714 58.7536 34.5266 50.1936 41.2447C45.2992 45.086 44.2274 45.9125 39.299 50.0464C35.3766 53.3365 32.628 56.7009 31.3826 58.3473C31.1505 58.6541 30.6331 58.4871 30.6341 58.1025Z" fill="url(#paint22_linear_3002_533)"/>
<path d="M30.6341 58.1025L30.6699 44.0723C30.6746 42.2119 31.0758 40.3514 31.9855 38.728C42.6008 19.7836 59.0781 23.8714 59.0781 23.8714C59.0781 23.8714 58.7536 34.5266 50.1936 41.2447C45.2992 45.086 44.2274 45.9125 39.299 50.0464C35.3766 53.3365 32.628 56.7009 31.3826 58.3473C31.1505 58.6541 30.6331 58.4871 30.6341 58.1025Z" fill="url(#paint23_radial_3002_533)"/>
<path d="M31.147 40.6927C35.7677 30.7227 45.8412 22.0792 57.3293 23.6786C57.5215 23.7029 57.7243 23.6512 57.9125 23.6804C57.7242 23.6514 57.5211 23.704 57.3289 23.6801C46.0482 22.3864 35.9166 30.994 31.7813 40.9913C31.5326 41.54 30.8815 42.9176 30.8815 42.9176L31.0614 41.758C31.0614 41.758 30.8723 41.2386 31.147 40.6927Z" fill="url(#paint24_linear_3002_533)"/>
<path d="M31.1304 40.4437C35.751 30.4737 45.6468 22.0774 57.135 23.6768C57.3272 23.7011 57.5299 23.6494 57.7182 23.6787C57.5299 23.6496 57.3268 23.7022 57.1345 23.6783C45.6095 22.1053 35.7246 30.8609 31.5894 40.8582C31.3407 41.4069 30.6895 42.7845 30.6895 42.7845L30.6893 41.7449C30.6893 41.7449 30.8556 40.9896 31.1304 40.4437Z" fill="url(#paint25_linear_3002_533)"/>
</mask>
<g mask="url(#mask0_3002_533)">
<rect x="-2.8457" y="0.0231934" width="72.0034" height="66.6471" fill="url(#paint26_linear_3002_533)"/>
</g>
</g>
<defs>
<linearGradient id="paint0_linear_3002_533" x1="1.3869" y1="-0.0222028" x2="30.3945" y2="61.348" gradientUnits="userSpaceOnUse">
<stop stop-color="#F0F0F0"/>
<stop offset="1" stop-color="#686868"/>
</linearGradient>
<linearGradient id="paint1_linear_3002_533" x1="-3.54624" y1="5.30935" x2="28.627" y2="53.6898" gradientUnits="userSpaceOnUse">
<stop stop-color="#F2F2F2"/>
<stop offset="0.226398" stop-color="#D4D4D4"/>
<stop offset="0.730106" stop-color="#404040"/>
<stop offset="1" stop-color="#343434"/>
</linearGradient>
<linearGradient id="paint2_linear_3002_533" x1="6.45042" y1="23.3347" x2="31.2331" y2="55.3011" gradientUnits="userSpaceOnUse">
<stop stop-color="#D0CFCF"/>
<stop offset="0.270601" stop-color="#D6D6D6"/>
<stop offset="1" stop-color="#888888"/>
</linearGradient>
<radialGradient id="paint3_radial_3002_533" cx="0" cy="0" r="1" gradientTransform="matrix(2.72366 29.7292 22.3545 -2.01655 5.59851 25.3858)" gradientUnits="userSpaceOnUse">
<stop stop-color="#DBDBDB"/>
<stop offset="1" stop-color="#CBCBCA" stop-opacity="0"/>
</radialGradient>
<linearGradient id="paint4_linear_3002_533" x1="14.3845" y1="25.4671" x2="16.0192" y2="43.8673" gradientUnits="userSpaceOnUse">
<stop stop-color="#C8C8C8"/>
<stop offset="1" stop-color="#828282"/>
</linearGradient>
<radialGradient id="paint5_radial_3002_533" cx="0" cy="0" r="1" gradientTransform="matrix(12.6455 29.1506 -24.902 10.637 2.48571 20.5608)" gradientUnits="userSpaceOnUse">
<stop stop-color="white"/>
<stop offset="1" stop-color="#A5A5A5" stop-opacity="0"/>
</radialGradient>
<radialGradient id="paint6_radial_3002_533" cx="0" cy="0" r="1" gradientTransform="matrix(-14.3965 -7.52881 -33.7833 63.607 59.5346 15.9306)" gradientUnits="userSpaceOnUse">
<stop stop-color="#3A3A3A"/>
<stop offset="1" stop-color="white"/>
</radialGradient>
<radialGradient id="paint7_radial_3002_533" cx="0" cy="0" r="1" gradientTransform="matrix(-7.58735 36.8719 42.0625 8.52243 39.3017 10.9114)" gradientUnits="userSpaceOnUse">
<stop stop-color="white"/>
<stop offset="1" stop-color="#292929" stop-opacity="0.75"/>
</radialGradient>
<linearGradient id="paint8_linear_3002_533" x1="63.5853" y1="4.87243" x2="24.2699" y2="49.1911" gradientUnits="userSpaceOnUse">
<stop stop-color="#696969"/>
<stop offset="0.269894" stop-color="#868685"/>
<stop offset="0.773602" stop-color="#BBB9B9"/>
</linearGradient>
<linearGradient id="paint9_linear_3002_533" x1="53.5906" y1="22.8979" x2="30.9745" y2="55.038" gradientUnits="userSpaceOnUse">
<stop stop-color="#8A8888"/>
<stop offset="0.270601" stop-color="#666565"/>
<stop offset="1" stop-color="#424141"/>
</linearGradient>
<radialGradient id="paint10_radial_3002_533" cx="0" cy="0" r="1" gradientTransform="matrix(-2.75862 29.4848 -22.1708 -2.04243 54.4775 25.1933)" gradientUnits="userSpaceOnUse">
<stop stop-color="#898887"/>
<stop offset="1" stop-color="#646060" stop-opacity="0"/>
</radialGradient>
<linearGradient id="paint11_linear_3002_533" x1="30.7379" y1="42.5174" x2="44.6573" y2="22.9893" gradientUnits="userSpaceOnUse">
<stop stop-color="#3B3B3B"/>
<stop offset="1" stop-color="#484848" stop-opacity="0"/>
</linearGradient>
<linearGradient id="paint12_linear_3002_533" x1="30.932" y1="41.3608" x2="44.4685" y2="22.9897" gradientUnits="userSpaceOnUse">
<stop stop-color="#DEDEDE"/>
<stop offset="1" stop-color="#999999"/>
</linearGradient>
<linearGradient id="paint13_linear_3002_533" x1="1.3869" y1="-0.0223249" x2="30.3945" y2="61.3478" gradientUnits="userSpaceOnUse">
<stop stop-color="#F0F0F0"/>
<stop offset="1" stop-color="#686868"/>
</linearGradient>
<linearGradient id="paint14_linear_3002_533" x1="-3.54624" y1="5.30923" x2="28.627" y2="53.6897" gradientUnits="userSpaceOnUse">
<stop stop-color="#F2F2F2"/>
<stop offset="0.226398" stop-color="#D4D4D4"/>
<stop offset="0.730106" stop-color="#404040"/>
<stop offset="1" stop-color="#343434"/>
</linearGradient>
<linearGradient id="paint15_linear_3002_533" x1="6.45042" y1="23.3347" x2="31.2331" y2="55.3012" gradientUnits="userSpaceOnUse">
<stop stop-color="#D0CFCF"/>
<stop offset="0.270601" stop-color="#D6D6D6"/>
<stop offset="1" stop-color="#888888"/>
</linearGradient>
<radialGradient id="paint16_radial_3002_533" cx="0" cy="0" r="1" gradientTransform="matrix(2.72366 29.7292 22.3545 -2.01655 5.59851 25.3858)" gradientUnits="userSpaceOnUse">
<stop stop-color="#DBDBDB"/>
<stop offset="1" stop-color="#CBCBCA" stop-opacity="0"/>
</radialGradient>
<linearGradient id="paint17_linear_3002_533" x1="14.3845" y1="25.467" x2="16.0192" y2="43.8672" gradientUnits="userSpaceOnUse">
<stop stop-color="#C8C8C8"/>
<stop offset="1" stop-color="#828282"/>
</linearGradient>
<radialGradient id="paint18_radial_3002_533" cx="0" cy="0" r="1" gradientTransform="matrix(12.6455 29.1506 -24.902 10.637 2.48571 20.5608)" gradientUnits="userSpaceOnUse">
<stop stop-color="white"/>
<stop offset="1" stop-color="#A5A5A5" stop-opacity="0"/>
</radialGradient>
<radialGradient id="paint19_radial_3002_533" cx="0" cy="0" r="1" gradientTransform="matrix(-14.3965 -7.52881 -33.7833 63.607 59.5346 15.9304)" gradientUnits="userSpaceOnUse">
<stop stop-color="#3A3A3A"/>
<stop offset="1" stop-color="white"/>
</radialGradient>
<radialGradient id="paint20_radial_3002_533" cx="0" cy="0" r="1" gradientTransform="matrix(-7.58735 36.8719 42.0625 8.52243 39.3017 10.9112)" gradientUnits="userSpaceOnUse">
<stop stop-color="white"/>
<stop offset="1" stop-color="#292929" stop-opacity="0.75"/>
</radialGradient>
<linearGradient id="paint21_linear_3002_533" x1="63.5853" y1="4.87231" x2="24.2699" y2="49.191" gradientUnits="userSpaceOnUse">
<stop stop-color="#696969"/>
<stop offset="0.269894" stop-color="#868685"/>
<stop offset="0.773602" stop-color="#BBB9B9"/>
</linearGradient>
<linearGradient id="paint22_linear_3002_533" x1="53.5906" y1="22.8978" x2="30.9745" y2="55.0379" gradientUnits="userSpaceOnUse">
<stop stop-color="#8A8888"/>
<stop offset="0.270601" stop-color="#666565"/>
<stop offset="1" stop-color="#424141"/>
</linearGradient>
<radialGradient id="paint23_radial_3002_533" cx="0" cy="0" r="1" gradientTransform="matrix(-2.75862 29.4848 -22.1708 -2.04243 54.4775 25.1932)" gradientUnits="userSpaceOnUse">
<stop stop-color="#898887"/>
<stop offset="1" stop-color="#646060" stop-opacity="0"/>
</radialGradient>
<linearGradient id="paint24_linear_3002_533" x1="30.7379" y1="42.5174" x2="44.6573" y2="22.9893" gradientUnits="userSpaceOnUse">
<stop stop-color="#3B3B3B"/>
<stop offset="1" stop-color="#484848" stop-opacity="0"/>
</linearGradient>
<linearGradient id="paint25_linear_3002_533" x1="30.932" y1="41.3607" x2="44.4685" y2="22.9896" gradientUnits="userSpaceOnUse">
<stop stop-color="#DEDEDE"/>
<stop offset="1" stop-color="#999999"/>
</linearGradient>
<linearGradient id="paint26_linear_3002_533" x1="29.8831" y1="55.3852" x2="29.8831" y2="60.4684" gradientUnits="userSpaceOnUse">
<stop stop-color="#C2F6B8" stop-opacity="0"/>
<stop offset="1" stop-color="#8A9E72"/>
</linearGradient>
</defs>
</svg>
