<svg width="18" height="20" viewBox="0 0 18 20" fill="none" xmlns="http://www.w3.org/2000/svg">
<g clip-path="url(#clip0_1_4782)">
<g clip-path="url(#clip1_1_4782)">
<path d="M17.998 10.0179C17.998 14.9889 13.969 19.0179 8.99805 19.0179C4.02705 19.0179 -0.00195312 14.9889 -0.00195312 10.0179C-0.00195312 5.04694 4.02705 1.01794 8.99805 1.01794C13.969 1.01794 17.998 5.04694 17.998 10.0179ZM9.32105 7.66194C8.44505 8.02594 6.69605 8.77994 4.07205 9.92294C3.64605 10.0919 3.42305 10.2579 3.40305 10.4199C3.36805 10.6939 3.71105 10.8019 4.17805 10.9489C4.24205 10.9689 4.30805 10.9899 4.37505 11.0109C4.83505 11.1609 5.45305 11.3359 5.77405 11.3429C6.06605 11.3489 6.39105 11.2289 6.75005 10.9819C9.20205 9.32694 10.467 8.49094 10.547 8.47294C10.603 8.45994 10.68 8.44394 10.733 8.49094C10.786 8.53794 10.78 8.62594 10.775 8.64994C10.741 8.79494 9.39405 10.0469 8.69805 10.6939C8.48005 10.8959 8.32605 11.0399 8.29505 11.0719C8.22405 11.1459 8.15205 11.2149 8.08305 11.2809C7.65605 11.6929 7.33605 12.0019 8.10105 12.5059C8.46905 12.7479 8.76305 12.9479 9.05605 13.1479C9.37605 13.3659 9.69605 13.5839 10.11 13.8549C10.215 13.9239 10.316 13.9959 10.413 14.0649C10.786 14.3309 11.121 14.5699 11.535 14.5319C11.776 14.5099 12.024 14.2839 12.15 13.6089C12.448 12.0149 13.035 8.56194 13.17 7.13894C13.182 7.01394 13.167 6.85394 13.155 6.78394C13.143 6.71394 13.118 6.61494 13.027 6.54094C12.919 6.45294 12.753 6.43494 12.678 6.43594C12.34 6.44194 11.82 6.62294 9.32105 7.66194Z" fill="white"/>
</g>
</g>
<defs>
<clipPath id="clip0_1_4782">
<rect width="18" height="19" fill="white" transform="translate(0 0.5)"/>
</clipPath>
<clipPath id="clip1_1_4782">
<rect width="18" height="19" fill="white" transform="translate(0 0.5)"/>
</clipPath>
</defs>
</svg>
